<?xml version="1.0" encoding="UTF-8" standalone="no"?>
<!-- Created with Inkscape (http://www.inkscape.org/) -->

<svg
   width="1200"
   height="630"
   viewBox="0 0 1200 630"
   version="1.1"
   id="svg1"
   inkscape:version="1.4 (e7c3feb100, 2024-10-09)"
   sodipodi:docname="og.svg"
   inkscape:export-filename="og.png"
   inkscape:export-xdpi="96"
   inkscape:export-ydpi="96"
   xmlns:inkscape="http://www.inkscape.org/namespaces/inkscape"
   xmlns:sodipodi="http://sodipodi.sourceforge.net/DTD/sodipodi-0.dtd"
   xmlns="http://www.w3.org/2000/svg"
   xmlns:svg="http://www.w3.org/2000/svg">
  <sodipodi:namedview
     id="namedview1"
     pagecolor="#000000"
     bordercolor="#000000"
     borderopacity="0.25"
     inkscape:showpageshadow="2"
     inkscape:pageopacity="0.0"
     inkscape:pagecheckerboard="0"
     inkscape:deskcolor="#d1d1d1"
     inkscape:document-units="px"
     inkscape:zoom="0.55"
     inkscape:cx="609.09091"
     inkscape:cy="274.54545"
     inkscape:window-width="3072"
     inkscape:window-height="1659"
     inkscape:window-x="0"
     inkscape:window-y="0"
     inkscape:window-maximized="1"
     inkscape:current-layer="svg1"
     inkscape:export-bgcolor="#00000000" />
  <defs
     id="defs1" />
  <rect
     style="fill:#000000;stroke-width:2.16888"
     id="rect2"
     width="1200"
     height="630"
     x="0"
     y="0"
     inkscape:label="bg" />
  <rect
     style="fill:#ffffff;stroke-width:1.79949"
     id="rect1"
     width="1200"
     height="300"
     x="0"
     y="165"
     inkscape:label="logo-bg" />
  <g
     id="g12"
     inkscape:label="logo">
    <path
       d="m 190.314,379.00012 h -15.36003 v -56.83211 h -62.46413 v 56.83211 H 97.129811 V 257.14388 h 15.360029 v 51.54144 h 62.46413 V 257.14388 H 190.314 Z"
       id="text12"
       style="font-size:170.667px;font-family:'Noto Sans';-inkscape-font-specification:'Noto Sans'"
       aria-label="H"
       inkscape:label="H" />
    <path
       d="m 256.19133,285.9866 q 16.72537,0 24.74671,7.33868 8.02135,7.33869 8.02135,23.38138 v 62.29346 h -10.92268 l -2.90134,-12.97069 h -0.68267 q -5.97335,7.50935 -12.62936,11.09335 -6.48535,3.58401 -18.0907,3.58401 -12.45869,0 -20.65071,-6.48534 -8.19202,-6.65602 -8.19202,-20.65071 0,-13.65336 10.75202,-20.99204 10.75203,-7.50935 33.1094,-8.19202 l 15.5307,-0.512 v -5.46135 q 0,-11.43469 -4.94934,-15.87203 -4.94935,-4.43734 -13.9947,-4.43734 -7.16801,0 -13.65336,2.21867 -6.48534,2.04801 -12.11735,4.77868 l -4.60801,-11.26402 q 5.97334,-3.24268 14.16536,-5.46135 8.19201,-2.38934 17.0667,-2.38934 z m 4.43734,48.81077 q -17.0667,0.68267 -23.72271,5.46134 -6.48535,4.77868 -6.48535,13.48269 0,7.68002 4.60801,11.26403 4.77868,3.584 12.11736,3.584 11.60535,0 19.28537,-6.31467 7.68001,-6.48535 7.68001,-19.79738 v -8.19201 z"
       id="text11"
       style="font-size:170.667px;font-family:'Noto Sans';-inkscape-font-specification:'Noto Sans'"
       aria-label="a"
       inkscape:label="a" />
    <path
       d="m 353.98367,380.70679 q -12.11736,0 -21.67471,-4.94934 -9.38668,-4.94934 -14.84803,-15.36003 -5.29068,-10.41069 -5.29068,-26.62405 0,-16.89604 5.63202,-27.47739 5.63201,-10.58136 15.18936,-15.5307 9.72802,-4.94934 22.01604,-4.94934 6.99735,0 13.4827,1.536 6.48534,1.36534 10.58135,3.41334 l -4.60801,12.45869 q -4.09601,-1.536 -9.55735,-2.90134 -5.46134,-1.36533 -10.24002,-1.36533 -26.96539,0 -26.96539,34.6454 0,16.5547 6.48535,25.42938 6.65601,8.70402 19.6267,8.70402 7.50935,0 13.14136,-1.536 5.80268,-1.53601 10.58136,-3.75468 v 13.31203 q -4.60801,2.38934 -10.24002,3.58401 -5.46135,1.36533 -13.31203,1.36533 z"
       id="text10"
       style="font-size:170.667px;font-family:'Noto Sans';-inkscape-font-specification:'Noto Sans'"
       aria-label="c"
       inkscape:label="c" />
    <path
       d="m 414.05837,317.048 q 0,2.73067 -0.34133,7.16801 -0.17067,4.43734 -0.34134,7.68002 h 0.68267 q 1.024,-1.36534 3.07201,-3.92534 2.048,-2.56001 4.096,-5.12001 2.21867,-2.73068 3.75468,-4.43735 l 29.18406,-30.89072 h 17.5787 l -37.03474,39.08274 39.59474,52.39477 h -18.0907 l -31.74406,-42.66675 -10.41069,9.04535 v 33.6214 H 399.21034 V 249.2932 h 14.84803 z"
       id="text9"
       style="font-size:170.667px;font-family:'Noto Sans';-inkscape-font-specification:'Noto Sans'"
       aria-label="k"
       inkscape:label="k" />
    <path
       d="m 525.67464,285.81594 q 11.77602,0 20.13871,5.12001 8.53335,5.12001 12.97069,14.50669 4.60801,9.21602 4.60801,21.67471 v 9.04535 h -62.63479 q 0.34133,15.5307 7.85068,23.72272 7.68002,8.02135 21.33338,8.02135 8.70401,0 15.36003,-1.53601 6.82668,-1.70667 13.99469,-4.77867 v 13.14136 q -6.99735,3.072 -13.82403,4.43734 -6.82668,1.536 -16.21336,1.536 -12.97069,0 -23.04005,-5.29068 -9.89868,-5.29067 -15.5307,-15.70136 -5.46134,-10.58135 -5.46134,-25.77072 0,-15.01869 4.94934,-25.77072 5.12001,-10.75202 14.16536,-16.5547 9.21602,-5.80267 21.33338,-5.80267 z m -0.17067,12.28802 q -10.75202,0 -17.0667,6.99735 -6.14401,6.82668 -7.33868,19.1147 h 46.59209 q -0.17066,-11.60535 -5.46134,-18.77337 -5.29068,-7.33868 -16.72537,-7.33868 z"
       id="text8"
       style="font-size:170.667px;font-family:'Noto Sans';-inkscape-font-specification:'Noto Sans'"
       aria-label="e"
       inkscape:label="e" />
    <path
       d="m 629.26939,285.81594 q 2.56001,0 5.46135,0.34133 3.07201,0.17067 5.29068,0.68267 l -1.87734,13.82403 q -2.21867,-0.51201 -4.94934,-0.85334 -2.56001,-0.34133 -4.94935,-0.34133 -6.99734,0 -13.14136,3.92534 -6.14401,3.75467 -9.89868,10.75202 -3.58401,6.82668 -3.58401,16.0427 v 48.81076 h -15.0187 v -91.47751 h 12.28803 l 1.70667,16.72536 h 0.68267 q 4.43734,-7.50935 11.43469,-12.97069 6.99734,-5.46134 16.55469,-5.46134 z"
       id="text7"
       style="font-size:170.667px;font-family:'Noto Sans';-inkscape-font-specification:'Noto Sans'"
       aria-label="r"
       inkscape:label="r" />
    <path
       d="m 716.65096,353.7414 q 0,13.31203 -9.89868,20.13871 -9.89869,6.82668 -26.62406,6.82668 -9.55735,0 -16.5547,-1.536 -6.82668,-1.536 -12.11735,-4.26668 v -13.65336 q 5.46134,2.73068 13.14136,5.12001 7.85068,2.21867 15.87203,2.21867 11.43469,0 16.5547,-3.584 5.12001,-3.75468 5.12001,-9.89869 0,-3.41334 -1.87734,-6.14401 -1.87734,-2.73067 -6.82668,-5.46135 -4.77868,-2.73067 -13.82403,-6.14401 -8.87468,-3.41334 -15.18936,-6.82668 -6.31468,-3.41334 -9.72802,-8.19201 -3.41334,-4.77868 -3.41334,-12.28803 0,-11.60536 9.38668,-17.92003 9.55736,-6.31468 24.91739,-6.31468 8.36268,0 15.5307,1.70667 7.33868,1.536 13.65336,4.43734 l -5.12001,11.94669 q -5.80268,-2.38934 -12.11736,-4.09601 -6.31468,-1.70667 -12.97069,-1.70667 -9.21602,0 -14.16537,3.07201 -4.77867,2.90134 -4.77867,8.02135 0,3.75467 2.21867,6.48534 2.21867,2.56001 7.33868,5.12001 5.29068,2.38934 13.99469,5.80268 8.70402,3.24267 14.84803,6.65601 6.14402,3.41334 9.38669,8.36269 3.24267,4.77867 3.24267,12.11735 z"
       id="text6"
       style="font-size:170.667px;font-family:'Noto Sans';-inkscape-font-specification:'Noto Sans'"
       aria-label="s"
       inkscape:label="s" />
    <path
       d="m 752.14972,259.02122 q -2.21868,8.87468 -6.48535,19.96804 -4.09601,10.92268 -8.19202,19.96804 H 726.379 q 1.70667,-6.48535 3.24267,-13.82403 1.70667,-7.50935 3.07201,-14.67736 1.36533,-7.33869 2.21867,-13.31203 h 16.0427 z"
       id="text5"
       style="font-size:170.667px;font-family:'Noto Sans';-inkscape-font-specification:'Noto Sans'"
       aria-label="’"
       inkscape:label="apostrophe" />
    <path
       d="m 847.38181,257.14388 q 23.89338,0 34.81607,9.38668 10.92269,9.38669 10.92269,26.45339 0,10.06935 -4.60801,18.94404 -4.43734,8.70402 -15.18937,14.16536 -10.58135,5.46134 -28.84272,5.46134 h -13.99469 v 47.44543 H 815.12574 V 257.14388 Z m -1.36534,13.14136 h -15.53069 v 48.12809 h 12.28802 q 17.40803,0 25.94138,-5.63201 8.53336,-5.63201 8.53336,-19.1147 0,-11.77603 -7.50935,-17.5787 -7.50935,-5.80268 -23.72272,-5.80268 z"
       id="text4"
       style="font-size:170.667px;font-family:'Noto Sans';-inkscape-font-specification:'Noto Sans'"
       aria-label="P"
       inkscape:label="P" />
    <path
       d="m 992.79004,287.52261 v 91.47751 h -12.28803 l -2.21867,-12.11736 h -0.68266 q -4.43735,7.16802 -12.28803,10.58136 -7.85068,3.24267 -16.72537,3.24267 -16.5547,0 -24.91738,-7.85068 -8.36268,-8.02135 -8.36268,-25.42938 v -59.90412 h 15.18936 v 58.88011 q 0,21.84538 20.30938,21.84538 15.18936,0 20.99204,-8.53335 5.97334,-8.53335 5.97334,-24.57605 v -47.61609 z"
       id="text3"
       style="font-size:170.667px;font-family:'Noto Sans';-inkscape-font-specification:'Noto Sans'"
       aria-label="u"
       inkscape:label="u" />
    <path
       d="m 1036.8221,280.86659 q 0,5.80268 -0.3413,10.92269 -0.1707,4.94934 -0.5121,7.85068 h 0.8534 q 3.9253,-5.80267 10.752,-9.72802 6.8267,-3.92534 17.5787,-3.92534 17.0667,0 27.3067,11.94669 10.4107,11.77603 10.4107,35.32807 0,23.55205 -10.4107,35.49874 -10.4107,11.94669 -27.3067,11.94669 -10.752,0 -17.5787,-3.92534 -6.8267,-3.92534 -10.752,-9.38668 h -1.1947 l -3.072,11.60535 h -10.752 V 249.2932 h 15.0187 z m 25.7707,17.5787 q -14.5067,0 -20.1387,8.36269 -5.632,8.36268 -5.632,25.94138 v 0.68267 q 0,16.89603 5.4613,25.94139 5.632,8.87468 20.6507,8.87468 12.2881,0 18.2614,-9.04535 6.144,-9.04535 6.144,-26.11205 0,-34.64541 -24.7467,-34.64541 z"
       id="text2"
       style="font-size:170.667px;font-family:'Noto Sans';-inkscape-font-specification:'Noto Sans'"
       aria-label="b"
       inkscape:label="b" />
  </g>
</svg>
